<svg xmlns="http://www.w3.org/2000/svg" viewBox="0 0 64 64" role="img" aria-labelledby="title desc">
  <title id="title">Scriptagher Mini Droid</title>
  <desc id="desc">Monochrome mini droid with bracket face, cylindrical body, hook arm and chest LED.</desc>
  <g fill="none" stroke="#F8FAFC" stroke-width="3" stroke-linecap="round" stroke-linejoin="round">
    <rect x="12" y="8" width="40" height="22" rx="7" />
    <path d="M26 19h-3c-2 0-3 1.5-3 3.5v2c0 2-1 3.5-3 3.5h-3" />
    <path d="M38 19h3c2 0 3 1.5 3 3.5v2c0 2 1 3.5 3 3.5h3" />
    <line x1="32" y1="30" x2="32" y2="34" />
    <rect x="23" y="34" width="18" height="20" rx="9" />
    <path d="M41 40h9a5.5 5.5 0 0 1 0 11h-4l3 3" />
  </g>
  <circle cx="32" cy="44" r="4" fill="#F8FAFC" />
</svg>
