<svg xmlns="http://www.w3.org/2000/svg" viewBox="0 0 256 256" role="img" aria-labelledby="title desc">
  <title id="title">Scriptagher Logo</title>
  <desc id="desc">Stylised S monogram within a rounded gradient square</desc>
  <defs>
    <linearGradient id="scriptagher-gradient" x1="0%" y1="0%" x2="100%" y2="100%">
      <stop offset="0%" stop-color="#0F172A" />
      <stop offset="45%" stop-color="#1E3A8A" />
      <stop offset="100%" stop-color="#0EA5E9" />
    </linearGradient>
    <linearGradient id="scriptagher-highlight" x1="15%" y1="15%" x2="85%" y2="85%">
      <stop offset="0%" stop-color="#38BDF8" stop-opacity="0.65" />
      <stop offset="100%" stop-color="#38BDF8" stop-opacity="0" />
    </linearGradient>
  </defs>
  <rect width="256" height="256" rx="56" fill="url(#scriptagher-gradient)" />
  <rect width="256" height="256" rx="56" fill="url(#scriptagher-highlight)" />
  <path
    fill="#F8FAFC"
    d="M74 74c20-24 56-34 88-26 22 5 40 19 46 37 10 28-10 52-54 63-38 9-46 18-42 30 4 13 22 20 44 18 20-2 36-10 47-23l28 24c-18 22-46 36-79 39-54 5-102-26-106-71-3-32 16-56 56-68 34-10 46-18 42-30-3-12-20-18-38-16-16 3-28 11-40 25z"
  />
</svg>
