<svg xmlns="http://www.w3.org/2000/svg" viewBox="0 0 128 128">
  <defs>
    <linearGradient id="grad" x1="0%" y1="0%" x2="100%" y2="100%">
      <stop offset="0%" stop-color="#3B82F6" />
      <stop offset="100%" stop-color="#1D4ED8" />
    </linearGradient>
  </defs>
  <rect width="128" height="128" rx="28" fill="url(#grad)" />
  <path
    d="M87.5 38c-6.9-6.9-16.5-10.8-27.5-10.8-18.9 0-34.3 12.2-34.3 29.4 0 16.4 11.7 23.7 26.8 28.6 13.1 4.3 18.8 7.6 18.8 14.4 0 6.8-6.5 11.5-15.7 11.5-10 0-18.9-4.4-24.9-10.4l-9.2 12.3c8.3 8 21.8 13.5 35.1 13.5 21.1 0 36.8-12 36.8-30.1 0-16-12.1-23.5-27.7-28.7-12.4-4.1-17.9-7-17.9-13.8 0-6.2 6-10.7 14.3-10.7 8 0 15.2 3.1 20.8 8.7L87.5 38z"
    fill="#F8FAFC"
  />
</svg>
