<svg xmlns="http://www.w3.org/2000/svg" viewBox="0 0 256 256">
  <defs>
    <linearGradient id="grad" x1="0%" y1="0%" x2="100%" y2="100%">
      <stop offset="0%" stop-color="#2f80ed" />
      <stop offset="100%" stop-color="#56ccf2" />
    </linearGradient>
  </defs>
  <rect width="256" height="256" rx="56" fill="url(#grad)" />
  <path d="M171.2 83.2c0-21.8-18.6-39.2-44.9-39.2-21.4 0-40.2 9.8-55.5 29.2l23 18.1c11.1-14.6 21.5-20.6 33-20.6 11.6 0 19.5 7 19.5 15.8 0 8.9-4.9 15.1-23.6 21.8-29.5 10.4-45.8 22.8-45.8 48.7 0 23.4 19.2 41.6 48.6 41.6 21.9 0 39.7-9 54.2-28.7l-22.6-18.3c-10.8 14.2-21.1 20.1-31.7 20.1-11.5 0-19.4-6.8-19.4-15.6 0-9.5 5.7-15.6 24.5-22.5 28.6-10.1 44.1-22.8 44.1-49.8z" fill="#ffffff"/>
</svg>
