<svg xmlns="http://www.w3.org/2000/svg" viewBox="0 0 256 256">
  <defs>
    <linearGradient id="scriptagher-gradient" x1="0%" y1="0%" x2="100%" y2="100%">
      <stop offset="0%" stop-color="#4338CA" />
      <stop offset="50%" stop-color="#6366F1" />
      <stop offset="100%" stop-color="#06B6D4" />
    </linearGradient>
  </defs>
  <rect width="256" height="256" rx="56" fill="url(#scriptagher-gradient)" />
  <path
    fill="#F8FAFC"
    d="M186 74c-15-18-37-28-63-28-46 0-80 29-80 68 0 32 21 48 52 58 25 7 35 14 35 27 0 13-13 21-32 21-21 0-39-9-52-24l-20 25c19 21 48 34 79 34 48 0 83-29 83-68 0-32-21-49-54-58-24-7-34-14-34-26 0-12 12-21 30-21 17 0 32 6 43 18z"
  />
</svg>
